<?xml version="1.0" encoding="UTF-8"?>
<svg version="1.1" viewBox="0 0 2592 2592" width="1280" height="1280" xmlns="http://www.w3.org/2000/svg">
<path transform="translate(829,592)" d="m0 0h13l10 4 11 8 29 29 8 7 22 22 8 7 11 12 8 11 6 11-1 6-6 12-9 12-12 14-53 53-8 7-9 8-12 7-3 1h-8l-7-3-11-6-7-6-7-11-1-3v-11l5-12 8-11 9-12 4-5 1-3-14 3h-111l-28 1-18 2-10 4-3 4-2 9-1 11-1 74-1 605 13 1 29 5 24 6 22 8 24 11 18 10 15 10 18 14 12 11 14 14 11 14 9 12 11 17 14 27 8 20 7 20 4 15 2 5 4-1 11-8 17-11 17-10 23-12 23-10 27-8 5-1-3-9-10-22-6-17-7-21-7-28-4-23-2-20-1-34v-39l1-89 2-22 11-44 7-20 9-20 11-21 7-11 10-15 11-14 6-8h2l2-4 19-19 14-11 20-15 19-12 23-12 21-9 22-7 24-5 26-3 13-1 28-1h25l32 2 22 3 24 5 22 7 17 7 22 11 23 14 16 12 10 8 17 14 18 18 11 14 11 15 13 22 13 27 8 20 7 24 6 29 2 20 1 31v112l-1 26-2 18-9 45-6 20-8 18-8 19 16 1h129l7-3 8-15 12-15 7-9 10-13 8-11 1-2v-461l1-31 2-15 5-14 9-16 8-11 9-10 13-10 14-8 13-5 13-3 9-1h14l17 2 17 5 15 8 17 13 8 9 10 14 8 16 3 10 2 28 8 4 21 9 19 9 16 10 15 13 7 6v2h2l9 11 10 13 9 15 8 16 6 16 3 14 2 23 1 261 4 4 35 20 17 12 13 11 8 7 10 9 9 9 9 11 10 13 9 14 8 14 8 15 10 23 7 23 5 22 3 26 1 17 1 72-1 61-3 34-7 34-6 19-8 21-11 25v2l29 10 13 5 17 8 18 10 19 12 14 10 16 13 10 8 10 10 5 4v2h2l7 8 9 10 12 16 13 20 12 21 11 23 9 23 6 19 7 30 4 26 2 30v151l-2 13-4 9-7 7-7 4-10 2-17-1-9-3-8-8-5-10-2-14v-141l-1-22-4-28-6-25-9-25-9-21-12-22-10-15-10-13-14-15-19-19-17-13-10-7-17-10-16-8-14-6-19-7-17-4-10-3-10 2-13 9-13 10-16 13-12 9-4 6v59l-3 17-5 16-8 19-8 13-9 12-11 13-8 8-11 9-11 8-12 7-30 10-18 4-8 1h-24l-23-4-24-8-16-8-13-9-11-9-9-9-11-14-10-15-9-19-6-16-3-14-2-23 1-25v-21l-6-8-11-8-11-9-10-8-14-11-10-5-8-1-8 1-5 2-16 4-15 5-15 6-22 12-15 9-11 8-11 9-14 12-13 13-11 14-9 12-10 16-7 12-11 23-6 16-7 26-4 24-2 25-1 133-1 24-2 13-5 10-6 5-11 4-12 1-14-2-8-4-7-8-3-9-2-18v-153l2-27 4-29 4-17 7-21 8-21 12-25 11-19 10-16 12-17 11-14 10-11 7-8 12-12 11-9 10-8 18-12 25-15 19-10 25-10 20-6 4-1-3-12-11-28-6-19-7-29-4-21-2-20-1-40v-51l1-47 2-29 4-26-6 1h-166l-8 4-10 9-8 7-10 9-10 8-13 8-8 6-3 5-1 3v54l-3 24-4 16-6 15-10 19-14 20-9 11-7 7-14 11-15 9-26 11-19 5-22 3h-30l-19-3-23-7-19-9-14-10-14-12-7-7-11-14-10-14-10-19-7-20-4-17-2-16v-59l-6-7-18-13-13-10-11-9-9-8-12-5h-12l-21 6-25 9-17 7-23 13-16 10-18 14-16 13-8 7-8 8-2 3-1 9-1 78-3 32-4 24-7 26-11 30-8 18-1 8 8 3 20 6 30 13 20 11 30 20 14 11 14 12 17 17 7 8 13 16 12 17 11 17 9 16 8 16 7 16 11 31 6 25 4 31 1 14 1 40v113l-1 21-4 14-6 8-7 4-7 2-10 1-15-2-8-4-7-8-3-5-2-12-1-39v-77l-1-39-3-36-5-25-8-25-8-20-12-23-11-17-11-15-12-14-16-16-11-9-15-11-13-8-24-13-30-13-34-9-8-1v2l-16 11-11 10-8 6-10 7-14 9-2 3v7l1 3v40l-4 32-5 16-8 16-10 18-10 13-12 13-12 10-15 10-15 7-25 8-17 4-9 1h-21l-16-2-26-7-14-6-13-8-12-9-10-9-10-10-10-13-11-18-10-21-6-20-2-12-1-20 1-21v-17l-5-8-10-9-14-11-11-9-10-7-11-7-7-1-35 10-21 8-23 11-24 16-11 8-15 14-6 5-5 6-5 5-10 11-9 12-15 24-12 24-9 24-6 21-3 16-2 20-1 23-1 147-2 11-4 10-6 7-9 5-9 2h-11l-11-2-6-3-7-7-4-9-3-13-1-16v-114l1-32 3-31 4-22 8-32 7-20 12-27 15-27 8-12 13-18 16-20 5-6h2l2-4 12-12h2v-2l11-9 17-13 16-11 24-14 16-8 25-11 23-7h3l-17-46-8-26-5-24-4-31-1-15v-129l3-33 4-20 6-23 7-16 9-13 7-5 7-2h9l12 4 11 6 9 10 3 5 1 7-2 13-9 29-3 24-1 16v131l2 25 3 18 7 23 10 24 11 20 11 16 12 14 12 13 13 11 13 10 14 9 25 13 19 7 17 5 21 4 18 2h29l19-2 27-6 24-8 15-7 16-8 14-9 11-9 13-11 18-18 8-10 8-11 8-13 12-26 8-27 6-31 2-24v-115l-1-21-4-27-7-25-6-16-10-20-14-21-9-11-15-15-17-13-17-11-21-11-15-6-21-6-25-4-27-2h-35l-30 3-25 5-21 7-28 11-13 4-7-1-8-6-8-8-7-11-4-11 2-10 6-9 9-9 13-8 17-8 19-7 19-5 31-6 15-2h5v-672l1-25 7-23 10-17 7-9h2l2-4 10-9 15-10 17-7 21-4 27-2h135l2-2-8-13-8-10-8-16v-10l6-11 8-8 11-8zm1044 423-9 3-8 5-5 6-4 9-1 4-1 157v59l1 7 5 1 186-1 7-2 1-4-2-52-3-17-5-13-9-16-9-11-12-10-14-8-13-5-21-5-25-4-9-3-7-9-4-6-2-9-1-49-3-10-5-8-5-4-9-4-4-1zm-599 92-36 4-27 6-16 5-15 7-17 9-18 12-10 8-10 9-17 17v2h-2l-9 12-9 13-6 11-8 16-8 20-6 18-4 17-2 16-1 15v138l3 32 6 26 9 26 10 21 11 19 8 11 10 13 15 16 16 15 16 12 10 7 21 12 21 9 17 6 26 6 26 3h28l22-2 24-4 19-5 26-10 17-9 17-11 17-13 10-9 8-7 8-8 7-8 1-3h2l13-18 9-14 10-19 7-19 7-25 4-18 2-16 1-19 1-76v-26l-1-39-3-27-5-22-6-18-9-20-10-19-12-17-9-11-20-20-14-11-10-7-13-8-23-12-21-8-21-5-19-3-32-3zm571 228-1 145 6-1 30-12 19-5 38-6 25-2h50l32 1 1-1-1-119zm118 188-29 3-23 5-21 7-27 14-16 11-10 8-16 15-4 4v2l-4 2-13 17-9 13-12 24-5 13-7 27-3 18-1 10-1 22v108l2 26 5 27 6 21 6 15 8 16 9 16 8 11 9 11 9 10 14 14 11 9 14 10 14 9 23 11 18 7 23 6 22 3 12 1h26l19-2 28-6 24-8 22-10 15-9 14-10 13-10 12-11 9-9 14-19 7-11 10-17 8-20 7-21 4-21 3-31v-133l-2-23-4-23-5-17-9-21-10-18-10-15-13-15-12-12-11-9-14-10-19-11-22-10-18-6-19-4-27-3-14-1zm-755 235-2 4v15l2 15 4 15 8 16 10 13 6 7 13 9 21 10 11 3 7 1h13l12-2 12-4 17-8 11-8 7-6 13-18 6-16 5-20 2-12v-12l-3-1h-12l-51 7-12 1h-29l-27-3-33-6zm-529 374-31 6-20 2h-52l-27-3-15-4h-10l-2 7 4 27 3 10 5 10 11 14 12 12 9 6 15 5 16 3h14l12-2 16-6 11-7 11-9 10-12 7-15 5-16 2-13v-12l-2-3zm1228 1-2 3 1 11 2 15 5 17 7 13 8 10 9 9 10 7 18 6 9 2 19 1 16-3 12-4 10-6 10-8 7-7 12-19 4-12 5-28-1-5-2-2h-9l-26 5-21 2h-51l-29-3-20-4z" fill="#FEFEFE"/>
<path transform="translate(1279,95)" d="m0 0h39l30 3 25 4 26 7 22 8 16 8 11 7 6 7 4 10-1 12-3 9-8 11-7 7-10 5-7-1-27-8-25-8-27-5-25-3-21-1h-14l-24 2-25 4-20 5-21 7-23 10-23 13-17 11-16 13-8 7-16 15-11 12-22 28-13 23-8 16-8 19-7 21-6 24-4 25-2 31 1 23 3 25 6 27 6 20 11 26 10 20 13 20 10 13 12 14 9 11 8 9 9 6 11 3h331l28-1 8-2 7-6 6-7 8-7 9-10 1-2h2l2-4 10-13 7-11 12-21 11-24 7-19 8-32 4-24 2-25v-15l-2-29-4-26-5-19-9-27-8-18-10-19-12-21-8-13-5-11-1-3v-8l4-10 6-7 13-9 8-3h11l10 3 10 9 9 11 11 17 13 22 13 28 8 21 9 29 5 22 4 28 2 28v26l-2 25-6 36-5 21-10 30-7 17-13 27-9 15-5 9-8 11-9 12-8 10-9 10-4 5h-2l-2 4-4 2v2l-8 7-9 8-2 5-1 20-1 118-2 18-4 12-8 16-9 11-4 5-8 7-13 9-16 5-16 2-22 1h-271l-21-1-15-3-16-8-8-6-10-9-12-16-8-15-4-14-1-7v-141l-6-9-15-16-8-8-7-8-12-14-13-18-9-13-13-22-13-28-9-24-7-25-6-26-5-31-1-13v-37l2-24 5-30 9-34 10-28 9-20 8-16 6-11 14-22 7-10 13-18h2l2-4 11-12 7-8h2l2-4h2v-2l8-7 11-10 12-9 14-10 17-11 16-9 21-11 27-11 19-6 23-6 30-5zm-146 646v131l1 4h316l6-1 1-28 1-47v-52l-1-7z" fill="#fff"/>
<path transform="translate(1749,591)" d="m0 0 15 2 9 5 12 11 4 9 1 4v8l-4 11-6 10-7 7-1 2h-2l-2 4-4 6 4 1h127l34 2 18 3 15 5 12 6 11 8 5 4v2h2v2h2l11 14 8 14 5 12 3 15 1 9 1 24v74l-1 33-3 13-5 9-4 5-7 4-8 2-14-1-16-6-7-5-6-9-1-3-1-130-2-17-3-9-4-2-9-4-5-1-164-2 6 7 10 11 7 10 3 8 1 4v9l-3 8-6 9-7 7-13 8-8 1-16-8-13-10-17-17-8-7-22-22-7-8-18-18-10-14-6-12v-6l7-11 11-14 12-13 42-42h2v-2l8-7 7-8 14-11z" fill="#FEFEFE"/>
<path transform="translate(1211,1473)" d="m0 0 16 2 14 7 5 5 3 7 6 28 5 12 10 11 10 4 13 2h11l14-5 9-8 5-9 3-10 7-28 4-8 10-6 6-2 10-1 11 2 12 5 9 6 3 9 1 6v27l-3 15-5 12-8 15-9 12-7 7-5 6-10 7-14 8-19 7-16 4-7 1h-18l-21-3-15-5-14-7-13-9-12-11-9-11-9-15-8-20-4-17v-19l4-14 7-10 10-7z" fill="#fff"/>
<path transform="translate(1909,1855)" d="m0 0 12 1 11 4 8 7 5 9 6 23 4 13 4 6 13 6 20 3 16-5 6-4 5-8 9-31 4-12 9-8 6-2h18l13 4 11 8 4 7 2 10v22l-4 16-7 16-12 18-7 9-9 9-19 12-14 6-25 5h-26l-16-3-16-6-14-8-10-8-7-6-10-13-10-16-6-13-4-16-1-6v-17l3-11 5-9 8-7 9-4z" fill="#fff"/>
<path transform="translate(521,1856)" d="m0 0h18l8 3 7 5 5 8 9 28 5 13 5 6 12 6 3 1h19l9-3 12-7 4-9 6-26 5-10 9-10 6-4 9-1 16 2 12 6 6 7 4 7 3 10v13l-2 13-7 19-8 16-10 13-5 6-8 7-9 7-16 8-13 5-21 4h-26l-16-3-14-5-18-11-14-12-13-17-10-19-6-17-2-8-1-14 3-13 6-11 7-7 8-5z" fill="#fff"/>
<path transform="translate(831,2366)" d="m0 0h12l10 3 6 4 7 7 4 8 3 12 1 10v49l-4 15-6 10-7 6-8 3-5 1h-13l-9-2-9-6-6-9-4-13-1-8v-59l4-13 7-9 8-6z" fill="#fff"/>
<path transform="translate(1746,2366)" d="m0 0h13l10 3 8 6 7 8 3 9 1 5v65l-3 14-6 9-8 6-10 3h-12l-10-2-8-5-7-7-4-8-2-7-1-8v-59l4-13 6-9 7-6 7-3z" fill="#fff"/>
<path transform="translate(2209,2367)" d="m0 0h17l13 4 8 5 5 6 3 16v56l-2 18-4 10-5 6-10 5-5 1h-13l-11-3-7-4-7-9-4-9-3-14v-50l4-18 5-10 5-5 7-4z" fill="#fff"/>
<path transform="translate(358,2367)" d="m0 0h19l12 4 9 8 5 10 3 13 1 12v30l-1 16-5 15-6 10-6 5-9 3-6 1h-8l-12-3-7-4-4-5-6-12-1-4-1-29v-20l1-22 2-9 6-10 7-6z" fill="#FEFEFE"/>
<path transform="translate(1756,412)" d="m0 0h38l14 2 12 6 6 5 6 10 3 11-1 10-6 11-9 10-10 5-15 3-20 1-20-2-10-3-10-6-7-8-5-11-1-10 4-13 6-8 9-8 10-4z" fill="#fff"/>
<path transform="translate(801,411)" d="m0 0 27 1 16 3 8 4 10 9 5 8 1 3v18l-4 10-5 6-9 6-13 5-14 2h-21l-19-3-12-6-6-5-6-10-3-8v-10l4-10 4-7h2l2-4 7-6 11-4z" fill="#fff"/>
<path transform="translate(1756,201)" d="m0 0h10l11 4 9 7 6 9 3 9v9l-3 10-6 9-12 10-17 11-13 6-20 6h-7l-9-3-9-8-8-13-2-7v-15l6-9 3-3h2v-2l11-9 23-13 14-6z" fill="#fff"/>
<path transform="translate(823,201)" d="m0 0h14l11 4 17 9 14 8 11 9 8 9 3 6 1 5v9l-3 10-6 8-7 6-8 4-6 2h-11l-14-4-21-11-12-9-12-11-4-6-2-7v-12l4-11 7-9 8-6z" fill="#fff"/>
<path transform="translate(2206,2055)" d="m0 0 2 1z" fill="#fff"/>
</svg>
