<svg width="147" height="28" viewBox="0 0 147 28" fill="none" xmlns="http://www.w3.org/2000/svg">
<g clip-path="url(#clip0_417_2838)">
<path d="M24.9722 27.598V5.23658L17.1446 27.598H12.7709L4.90682 5.23658V27.598H0V0.568848H8.09771L14.9395 19.816L21.7813 0.568848H29.9155V27.598H24.9722Z" fill="#22375B"/>
<path d="M34.5083 2.54537C34.5083 1.10129 35.5379 0 37.356 0C39.1742 0 40.1672 1.10129 40.1672 2.54537C40.1672 3.98945 39.1815 5.09075 37.356 5.09075C35.5306 5.09075 34.5083 3.98945 34.5083 2.54537ZM34.888 27.6053V8.00808H39.7948V27.598H34.888V27.6053Z" fill="#22375B"/>
<path d="M56.976 27.5981V15.6005C56.976 12.9457 56.0268 11.6111 53.6318 11.6111C51.0469 11.6111 49.3748 13.4709 49.3748 16.6581V27.5908H44.468V8.00816H49.1412V11.1953C50.2072 9.10945 51.9524 7.62891 55.1506 7.62891C59.6339 7.62891 61.8755 9.90443 61.8755 14.6524V27.5981H56.9687H56.976Z" fill="#22375B"/>
<path d="M65.7893 17.8031C65.7893 11.7642 69.2066 7.62891 75.5226 7.62891C81.8387 7.62891 85.2924 11.808 85.2924 17.577C85.2924 17.9927 85.2559 18.372 85.2194 18.8315H70.6961C70.8495 22.8209 72.7479 24.637 75.749 24.637C78.1805 24.637 79.7796 23.419 80.3491 21.4133H84.8689C84.0365 25.4392 81.0282 27.9846 75.749 27.9846C69.3599 27.9846 65.7893 23.9951 65.7893 17.8104V17.8031ZM70.6961 15.637H80.3856C79.9694 12.5227 78.217 10.9693 75.5226 10.9693C72.8283 10.9693 71.1123 12.5227 70.6961 15.637Z" fill="#22375B"/>
<path d="M107.862 20.9618V8.00879H112.769V20.0063C112.769 22.6611 113.718 23.9958 116.113 23.9958C118.698 23.9958 120.37 22.136 120.37 18.9488V8.01608H125.277V27.606H120.604V24.4188C119.538 26.5047 117.793 27.9852 114.558 27.9852C110.075 27.9852 107.87 25.7097 107.87 20.9618H107.862Z" fill="#22375B"/>
<path d="M129.184 21.4133H133.937C134.163 23.4992 135.113 24.7537 138.157 24.7537C141.202 24.7537 142.108 23.5357 142.108 22.0989C142.108 20.7715 141.042 20.0859 139.37 19.8234L135.989 19.3274C131.469 18.6783 129.717 17.1613 129.717 13.8209C129.717 10.4806 132.112 7.62891 138.077 7.62891C144.043 7.62891 146.474 10.3274 146.474 13.8939H141.721C141.531 12.2602 140.925 10.8599 138.033 10.8599C135.565 10.8599 134.609 11.8809 134.609 13.4417C134.609 14.7326 135.368 15.3015 136.777 15.4911L140.122 15.9871C144.452 16.5924 147 18.0365 147 21.7926C147 25.2861 144.415 27.9846 138.07 27.9846C131.725 27.9846 129.176 25.2861 129.176 21.4133H129.184Z" fill="#22375B"/>
<path d="M104.525 8.11035L97.983 17.475L96.8366 19.116L95.2302 21.4207L92.3752 17.3291L93.9816 15.0244L95.128 13.3834L98.8154 8.11035H104.525Z" fill="#22375B"/>
<path d="M93.3245 10.8016L90.579 14.7619L85.9351 8.11035H91.4479L93.3245 10.8016Z" fill="#0093AF"/>
<path d="M93.1857 24.3378L90.9805 27.4958H85.2705L90.3088 20.2827L93.1857 24.3378Z" fill="#2C2F88"/>
<path d="M104.993 27.4949H99.4798L97.1287 24.1327L99.8814 20.187L104.993 27.4949Z" fill="#009453"/>
</g>
<defs>
<clipPath id="clip0_417_2838">
<rect width="147" height="27.985" fill="white"/>
</clipPath>
</defs>
</svg>
